<?xml version="1.0" encoding="UTF-8" standalone="no"?>
<!DOCTYPE svg PUBLIC "-//W3C//DTD SVG 1.1//EN" "http://www.w3.org/Graphics/SVG/1.1/DTD/svg11.dtd">
<svg viewBox="0 0 3143 1399" version="1.1" xmlns="http://www.w3.org/2000/svg" xmlns:xlink="http://www.w3.org/1999/xlink" xml:space="preserve" xmlns:serif="http://www.serif.com/" style="fill-rule:evenodd;clip-rule:evenodd;stroke-linejoin:round;stroke-miterlimit:2;">
    <g transform="matrix(1,0,0,1,-146.272919,-594.835594)">
        <g transform="matrix(0.943283,0,0,0.978935,-1385.915938,-329.670534)">
            <g transform="matrix(694.37641,0,0,694.37641,4327.523354,1492.263012)">
            </g>
            <text x="1622.233px" y="1492.263px" style="font-family:'ABCPalomaUnlicensedTrial-Medium', 'ABC Paloma Unlicensed Trial';font-weight:500;font-size:694.376px;fill:rgb(26,120,200);">S<tspan x="1999.974px " y="1492.263px ">O</tspan>UTH</text>
        </g>
        <g transform="matrix(1.205121,0,0,1.25067,-1548.095801,-113.990858)">
            <g transform="matrix(544.542368,0,0,544.542368,4022.575619,1492.263012)">
            </g>
            <text x="1622.233px" y="1492.263px" style="font-family:'ABCPalomaUnlicensedTrial-Medium', 'ABC Paloma Unlicensed Trial';font-weight:500;font-size:544.542px;fill:rgb(255,0,0);">C<tspan x="2019.204px " y="1492.263px ">A</tspan>LLING</text>
        </g>
        <g transform="matrix(1,0,0,1,1216.546945,521.546381)">
            <g transform="matrix(200,0,0,200,223.150285,1470.023804)">
                <path d="M0.126,-0.7C0.134,-0.7 0.141,-0.697 0.147,-0.691C0.153,-0.685 0.157,-0.678 0.157,-0.669L0.157,-0.031C0.156,-0.022 0.153,-0.015 0.146,-0.009C0.14,-0.003 0.133,-0 0.125,-0C0.115,-0 0.108,-0.003 0.102,-0.009C0.097,-0.015 0.094,-0.022 0.094,-0.031L0.094,-0.669C0.094,-0.678 0.097,-0.685 0.103,-0.691C0.109,-0.697 0.116,-0.7 0.126,-0.7ZM0.595,-0.7C0.604,-0.7 0.611,-0.697 0.617,-0.691C0.623,-0.685 0.626,-0.678 0.626,-0.669L0.626,-0.031C0.626,-0.022 0.622,-0.015 0.616,-0.009C0.61,-0.003 0.603,-0 0.594,-0C0.585,-0 0.578,-0.003 0.572,-0.009C0.566,-0.015 0.563,-0.022 0.563,-0.031L0.563,-0.669C0.563,-0.678 0.566,-0.685 0.573,-0.691C0.579,-0.697 0.586,-0.7 0.595,-0.7ZM0.121,-0.387L0.596,-0.387L0.595,-0.329L0.117,-0.329L0.121,-0.387Z" style="fill:rgb(255,0,0);fill-rule:nonzero;"/>
            </g>
            <g transform="matrix(200,0,0,200,367.150285,1470.023804)">
                <path d="M0.718,-0.35C0.718,-0.298 0.71,-0.249 0.694,-0.206C0.677,-0.162 0.654,-0.124 0.624,-0.091C0.594,-0.059 0.558,-0.034 0.517,-0.017C0.476,0.001 0.432,0.01 0.383,0.01C0.334,0.01 0.289,0.001 0.248,-0.017C0.207,-0.034 0.172,-0.059 0.142,-0.091C0.112,-0.124 0.089,-0.162 0.072,-0.206C0.056,-0.249 0.048,-0.298 0.048,-0.35C0.048,-0.403 0.056,-0.451 0.072,-0.494C0.089,-0.538 0.112,-0.576 0.142,-0.609C0.172,-0.641 0.207,-0.666 0.248,-0.683C0.289,-0.701 0.334,-0.71 0.383,-0.71C0.432,-0.71 0.476,-0.701 0.517,-0.683C0.558,-0.666 0.594,-0.641 0.624,-0.609C0.654,-0.576 0.677,-0.538 0.694,-0.494C0.71,-0.451 0.718,-0.403 0.718,-0.35ZM0.654,-0.35C0.654,-0.409 0.643,-0.461 0.619,-0.506C0.596,-0.551 0.564,-0.587 0.524,-0.612C0.483,-0.637 0.436,-0.65 0.383,-0.65C0.33,-0.65 0.283,-0.637 0.242,-0.612C0.201,-0.587 0.169,-0.551 0.146,-0.507C0.123,-0.462 0.112,-0.409 0.112,-0.35C0.112,-0.291 0.123,-0.239 0.146,-0.194C0.169,-0.149 0.201,-0.113 0.242,-0.088C0.283,-0.063 0.33,-0.05 0.383,-0.05C0.436,-0.05 0.483,-0.063 0.524,-0.088C0.564,-0.113 0.596,-0.149 0.619,-0.194C0.643,-0.239 0.654,-0.291 0.654,-0.35Z" style="fill:rgb(255,0,0);fill-rule:nonzero;"/>
            </g>
            <g transform="matrix(200,0,0,200,520.350285,1470.023804)">
                <path d="M0.589,-0.7C0.598,-0.7 0.605,-0.697 0.611,-0.691C0.616,-0.685 0.619,-0.678 0.619,-0.67L0.619,-0.256C0.619,-0.206 0.607,-0.162 0.584,-0.122C0.56,-0.082 0.529,-0.05 0.489,-0.026C0.45,-0.003 0.406,0.009 0.357,0.009C0.308,0.009 0.263,-0.003 0.224,-0.026C0.184,-0.05 0.152,-0.082 0.129,-0.122C0.105,-0.162 0.094,-0.206 0.094,-0.256L0.094,-0.67C0.094,-0.678 0.097,-0.685 0.102,-0.691C0.108,-0.697 0.116,-0.7 0.126,-0.7C0.134,-0.7 0.141,-0.697 0.147,-0.691C0.153,-0.685 0.156,-0.678 0.156,-0.67L0.156,-0.256C0.156,-0.217 0.165,-0.183 0.183,-0.152C0.201,-0.121 0.226,-0.096 0.257,-0.078C0.287,-0.06 0.321,-0.051 0.357,-0.051C0.394,-0.051 0.428,-0.06 0.459,-0.078C0.489,-0.096 0.514,-0.121 0.532,-0.152C0.551,-0.183 0.56,-0.217 0.56,-0.256L0.56,-0.67C0.56,-0.678 0.563,-0.685 0.568,-0.691C0.573,-0.697 0.58,-0.7 0.589,-0.7Z" style="fill:rgb(255,0,0);fill-rule:nonzero;"/>
            </g>
            <g transform="matrix(200,0,0,200,660.950285,1470.023804)">
                <path d="M0.287,0.01C0.237,0.011 0.193,0.003 0.155,-0.014C0.118,-0.03 0.082,-0.055 0.048,-0.088C0.044,-0.091 0.042,-0.095 0.04,-0.099C0.037,-0.103 0.036,-0.108 0.036,-0.113C0.036,-0.121 0.039,-0.128 0.046,-0.135C0.052,-0.141 0.059,-0.145 0.067,-0.145C0.075,-0.145 0.082,-0.141 0.088,-0.135C0.115,-0.107 0.144,-0.085 0.177,-0.071C0.21,-0.056 0.246,-0.049 0.284,-0.049C0.316,-0.049 0.344,-0.054 0.369,-0.064C0.395,-0.074 0.415,-0.089 0.429,-0.107C0.444,-0.126 0.451,-0.147 0.451,-0.172C0.451,-0.202 0.442,-0.227 0.426,-0.246C0.409,-0.265 0.387,-0.281 0.36,-0.293C0.332,-0.306 0.302,-0.317 0.269,-0.327C0.242,-0.335 0.216,-0.344 0.191,-0.354C0.166,-0.365 0.144,-0.377 0.125,-0.392C0.106,-0.407 0.091,-0.426 0.08,-0.448C0.069,-0.47 0.064,-0.496 0.064,-0.527C0.064,-0.563 0.073,-0.594 0.092,-0.622C0.111,-0.649 0.137,-0.671 0.172,-0.686C0.206,-0.702 0.246,-0.71 0.291,-0.71C0.331,-0.71 0.368,-0.703 0.405,-0.69C0.441,-0.676 0.47,-0.657 0.491,-0.631C0.501,-0.62 0.506,-0.611 0.506,-0.602C0.506,-0.595 0.502,-0.588 0.496,-0.582C0.489,-0.575 0.482,-0.572 0.474,-0.572C0.467,-0.572 0.462,-0.574 0.457,-0.579C0.445,-0.593 0.431,-0.606 0.414,-0.617C0.396,-0.627 0.377,-0.636 0.356,-0.642C0.335,-0.648 0.314,-0.651 0.291,-0.651C0.26,-0.651 0.231,-0.646 0.206,-0.637C0.181,-0.627 0.162,-0.613 0.147,-0.595C0.133,-0.577 0.126,-0.555 0.126,-0.529C0.126,-0.501 0.134,-0.478 0.15,-0.461C0.166,-0.443 0.187,-0.428 0.213,-0.416C0.239,-0.404 0.267,-0.394 0.296,-0.384C0.325,-0.376 0.352,-0.367 0.379,-0.356C0.405,-0.346 0.428,-0.333 0.449,-0.318C0.469,-0.302 0.485,-0.283 0.496,-0.26C0.508,-0.236 0.513,-0.207 0.513,-0.172C0.513,-0.138 0.504,-0.108 0.485,-0.08C0.465,-0.053 0.439,-0.031 0.405,-0.015C0.371,0.001 0.332,0.009 0.287,0.01Z" style="fill:rgb(255,0,0);fill-rule:nonzero;"/>
            </g>
            <g transform="matrix(200,0,0,200,773.350285,1470.023804)">
                <path d="M0.124,-0.7L0.49,-0.7C0.499,-0.7 0.506,-0.697 0.512,-0.691C0.518,-0.686 0.521,-0.679 0.521,-0.67C0.521,-0.662 0.518,-0.655 0.512,-0.649C0.506,-0.644 0.499,-0.641 0.49,-0.641L0.147,-0.641L0.157,-0.658L0.157,-0.377L0.145,-0.39L0.446,-0.39C0.454,-0.39 0.461,-0.387 0.467,-0.381C0.473,-0.375 0.476,-0.368 0.476,-0.36C0.476,-0.351 0.473,-0.344 0.467,-0.339C0.461,-0.333 0.454,-0.331 0.446,-0.331L0.148,-0.331L0.157,-0.341L0.157,-0.053L0.151,-0.059L0.49,-0.059C0.499,-0.059 0.506,-0.056 0.512,-0.05C0.518,-0.044 0.521,-0.037 0.521,-0.029C0.521,-0.021 0.518,-0.014 0.512,-0.008C0.506,-0.003 0.499,-0 0.49,-0L0.124,-0C0.116,-0 0.109,-0.003 0.103,-0.009C0.097,-0.015 0.094,-0.022 0.094,-0.03L0.094,-0.67C0.094,-0.678 0.097,-0.685 0.103,-0.691C0.109,-0.697 0.116,-0.7 0.124,-0.7Z" style="fill:rgb(255,0,0);fill-rule:nonzero;"/>
            </g>
            <g transform="matrix(200,0,0,200,886.950285,1470.023804)">
            </g>
            <g transform="matrix(200,0,0,200,941.550285,1470.023804)">
                <path d="M0.124,-0C0.115,-0 0.108,-0.003 0.102,-0.009C0.097,-0.015 0.094,-0.022 0.094,-0.03L0.094,-0.67C0.094,-0.678 0.097,-0.685 0.103,-0.691C0.109,-0.697 0.116,-0.7 0.124,-0.7L0.488,-0.7C0.496,-0.7 0.503,-0.697 0.509,-0.691C0.515,-0.686 0.518,-0.679 0.518,-0.67C0.518,-0.662 0.515,-0.655 0.509,-0.65C0.503,-0.644 0.496,-0.641 0.488,-0.641L0.15,-0.641L0.155,-0.647L0.155,-0.381L0.15,-0.39L0.443,-0.39C0.451,-0.39 0.458,-0.387 0.464,-0.382C0.47,-0.376 0.473,-0.369 0.473,-0.36C0.473,-0.352 0.47,-0.345 0.464,-0.34C0.458,-0.334 0.451,-0.332 0.443,-0.332L0.148,-0.332L0.155,-0.34L0.155,-0.03C0.155,-0.022 0.152,-0.015 0.146,-0.009C0.14,-0.003 0.133,-0 0.124,-0Z" style="fill:rgb(255,0,0);fill-rule:nonzero;"/>
            </g>
            <g transform="matrix(200,0,0,200,1054.750285,1470.023804)">
                <path d="M0.124,-0.7L0.49,-0.7C0.499,-0.7 0.506,-0.697 0.512,-0.691C0.518,-0.686 0.521,-0.679 0.521,-0.67C0.521,-0.662 0.518,-0.655 0.512,-0.649C0.506,-0.644 0.499,-0.641 0.49,-0.641L0.147,-0.641L0.157,-0.658L0.157,-0.377L0.145,-0.39L0.446,-0.39C0.454,-0.39 0.461,-0.387 0.467,-0.381C0.473,-0.375 0.476,-0.368 0.476,-0.36C0.476,-0.351 0.473,-0.344 0.467,-0.339C0.461,-0.333 0.454,-0.331 0.446,-0.331L0.148,-0.331L0.157,-0.341L0.157,-0.053L0.151,-0.059L0.49,-0.059C0.499,-0.059 0.506,-0.056 0.512,-0.05C0.518,-0.044 0.521,-0.037 0.521,-0.029C0.521,-0.021 0.518,-0.014 0.512,-0.008C0.506,-0.003 0.499,-0 0.49,-0L0.124,-0C0.116,-0 0.109,-0.003 0.103,-0.009C0.097,-0.015 0.094,-0.022 0.094,-0.03L0.094,-0.67C0.094,-0.678 0.097,-0.685 0.103,-0.691C0.109,-0.697 0.116,-0.7 0.124,-0.7Z" style="fill:rgb(255,0,0);fill-rule:nonzero;"/>
            </g>
            <g transform="matrix(200,0,0,200,1168.350285,1470.023804)">
                <path d="M0.287,0.01C0.237,0.011 0.193,0.003 0.155,-0.014C0.118,-0.03 0.082,-0.055 0.048,-0.088C0.044,-0.091 0.042,-0.095 0.04,-0.099C0.037,-0.103 0.036,-0.108 0.036,-0.113C0.036,-0.121 0.039,-0.128 0.046,-0.135C0.052,-0.141 0.059,-0.145 0.067,-0.145C0.075,-0.145 0.082,-0.141 0.088,-0.135C0.115,-0.107 0.144,-0.085 0.177,-0.071C0.21,-0.056 0.246,-0.049 0.284,-0.049C0.316,-0.049 0.344,-0.054 0.369,-0.064C0.395,-0.074 0.415,-0.089 0.429,-0.107C0.444,-0.126 0.451,-0.147 0.451,-0.172C0.451,-0.202 0.442,-0.227 0.426,-0.246C0.409,-0.265 0.387,-0.281 0.36,-0.293C0.332,-0.306 0.302,-0.317 0.269,-0.327C0.242,-0.335 0.216,-0.344 0.191,-0.354C0.166,-0.365 0.144,-0.377 0.125,-0.392C0.106,-0.407 0.091,-0.426 0.08,-0.448C0.069,-0.47 0.064,-0.496 0.064,-0.527C0.064,-0.563 0.073,-0.594 0.092,-0.622C0.111,-0.649 0.137,-0.671 0.172,-0.686C0.206,-0.702 0.246,-0.71 0.291,-0.71C0.331,-0.71 0.368,-0.703 0.405,-0.69C0.441,-0.676 0.47,-0.657 0.491,-0.631C0.501,-0.62 0.506,-0.611 0.506,-0.602C0.506,-0.595 0.502,-0.588 0.496,-0.582C0.489,-0.575 0.482,-0.572 0.474,-0.572C0.467,-0.572 0.462,-0.574 0.457,-0.579C0.445,-0.593 0.431,-0.606 0.414,-0.617C0.396,-0.627 0.377,-0.636 0.356,-0.642C0.335,-0.648 0.314,-0.651 0.291,-0.651C0.26,-0.651 0.231,-0.646 0.206,-0.637C0.181,-0.627 0.162,-0.613 0.147,-0.595C0.133,-0.577 0.126,-0.555 0.126,-0.529C0.126,-0.501 0.134,-0.478 0.15,-0.461C0.166,-0.443 0.187,-0.428 0.213,-0.416C0.239,-0.404 0.267,-0.394 0.296,-0.384C0.325,-0.376 0.352,-0.367 0.379,-0.356C0.405,-0.346 0.428,-0.333 0.449,-0.318C0.469,-0.302 0.485,-0.283 0.496,-0.26C0.508,-0.236 0.513,-0.207 0.513,-0.172C0.513,-0.138 0.504,-0.108 0.485,-0.08C0.465,-0.053 0.439,-0.031 0.405,-0.015C0.371,0.001 0.332,0.009 0.287,0.01Z" style="fill:rgb(255,0,0);fill-rule:nonzero;"/>
            </g>
            <g transform="matrix(200,0,0,200,1280.750285,1470.023804)">
                <path d="M0.301,-0C0.292,-0 0.285,-0.003 0.279,-0.009C0.273,-0.015 0.271,-0.022 0.271,-0.03L0.271,-0.667L0.333,-0.667L0.333,-0.03C0.333,-0.022 0.33,-0.015 0.324,-0.009C0.318,-0.003 0.31,-0 0.301,-0ZM0.064,-0.643C0.056,-0.643 0.049,-0.645 0.043,-0.651C0.037,-0.656 0.034,-0.663 0.034,-0.671C0.034,-0.68 0.037,-0.687 0.043,-0.692C0.049,-0.697 0.056,-0.7 0.064,-0.7L0.539,-0.7C0.548,-0.7 0.555,-0.697 0.561,-0.692C0.567,-0.686 0.57,-0.68 0.57,-0.671C0.57,-0.662 0.567,-0.655 0.561,-0.65C0.555,-0.645 0.548,-0.643 0.539,-0.643L0.064,-0.643Z" style="fill:rgb(255,0,0);fill-rule:nonzero;"/>
            </g>
            <g transform="matrix(200,0,0,200,1401.550285,1470.023804)">
                <path d="M0.157,-0.031C0.156,-0.022 0.153,-0.015 0.146,-0.009C0.14,-0.003 0.133,-0 0.125,-0C0.115,-0 0.108,-0.003 0.102,-0.009C0.097,-0.015 0.094,-0.022 0.094,-0.031L0.094,-0.669C0.094,-0.678 0.097,-0.685 0.103,-0.691C0.109,-0.697 0.116,-0.7 0.126,-0.7C0.134,-0.7 0.141,-0.697 0.147,-0.691C0.153,-0.685 0.157,-0.678 0.157,-0.669L0.157,-0.031Z" style="fill:rgb(255,0,0);fill-rule:nonzero;"/>
            </g>
            <g transform="matrix(200,0,0,200,1451.550285,1470.023804)">
                <path d="M0.6,-0.701C0.609,-0.701 0.617,-0.698 0.622,-0.693C0.628,-0.687 0.631,-0.681 0.631,-0.672C0.631,-0.668 0.63,-0.664 0.628,-0.658L0.36,-0.019C0.357,-0.013 0.353,-0.008 0.348,-0.005C0.343,-0.002 0.337,-0 0.332,-0C0.326,-0 0.32,-0.002 0.315,-0.005C0.31,-0.009 0.306,-0.013 0.304,-0.019L0.038,-0.656C0.037,-0.658 0.036,-0.661 0.036,-0.663C0.035,-0.666 0.035,-0.668 0.035,-0.671C0.035,-0.68 0.038,-0.687 0.044,-0.693C0.051,-0.698 0.057,-0.701 0.064,-0.701C0.078,-0.701 0.088,-0.693 0.094,-0.679L0.344,-0.081L0.326,-0.081L0.572,-0.681C0.579,-0.694 0.588,-0.701 0.6,-0.701Z" style="fill:rgb(255,0,0);fill-rule:nonzero;"/>
            </g>
            <g transform="matrix(200,0,0,200,1577.750285,1470.023804)">
                <path d="M0.328,-0.623L0.085,-0.018C0.082,-0.012 0.079,-0.007 0.074,-0.004C0.069,-0.001 0.064,0.001 0.058,0.001C0.048,0.001 0.041,-0.001 0.036,-0.006C0.032,-0.011 0.029,-0.017 0.029,-0.025C0.028,-0.028 0.029,-0.032 0.03,-0.037L0.294,-0.683C0.297,-0.69 0.301,-0.695 0.306,-0.698C0.311,-0.701 0.317,-0.703 0.324,-0.703C0.331,-0.703 0.337,-0.701 0.342,-0.697C0.347,-0.694 0.35,-0.689 0.352,-0.683L0.616,-0.04C0.617,-0.036 0.618,-0.032 0.618,-0.028C0.618,-0.019 0.615,-0.012 0.609,-0.007C0.603,-0.001 0.596,0.001 0.588,0.001C0.582,0.001 0.576,-0.001 0.571,-0.004C0.565,-0.008 0.562,-0.013 0.559,-0.019L0.31,-0.627L0.328,-0.623ZM0.143,-0.202L0.168,-0.261L0.478,-0.261L0.49,-0.202L0.143,-0.202Z" style="fill:rgb(255,0,0);fill-rule:nonzero;"/>
            </g>
            <g transform="matrix(200,0,0,200,1707.150285,1470.023804)">
                <path d="M0.48,-0.059C0.489,-0.059 0.496,-0.056 0.502,-0.051C0.508,-0.045 0.511,-0.038 0.511,-0.03C0.511,-0.021 0.508,-0.014 0.502,-0.008C0.496,-0.003 0.489,-0 0.48,-0L0.124,-0C0.115,-0 0.108,-0.003 0.102,-0.009C0.097,-0.015 0.094,-0.022 0.094,-0.03L0.094,-0.67C0.094,-0.678 0.097,-0.685 0.103,-0.691C0.109,-0.697 0.116,-0.7 0.126,-0.7C0.134,-0.7 0.141,-0.697 0.147,-0.691C0.153,-0.685 0.157,-0.678 0.157,-0.67L0.157,-0.042L0.138,-0.059L0.48,-0.059Z" style="fill:rgb(255,0,0);fill-rule:nonzero;"/>
            </g>
            <g transform="matrix(200,0,0,200,1813.550285,1470.023804)">
            </g>
        </g>
    </g>
</svg>
